<?xml version="1.0" standalone="no"?>
<!DOCTYPE svg PUBLIC "-//W3C//DTD SVG 20010904//EN"
 "http://www.w3.org/TR/2001/REC-SVG-20010904/DTD/svg10.dtd">
<svg version="1.0" xmlns="http://www.w3.org/2000/svg"
 width="1024.000000pt" height="1024.000000pt" viewBox="0 0 1024.000000 1024.000000"
 preserveAspectRatio="xMidYMid meet">

<g transform="translate(0.000000,1024.000000) scale(0.100000,-0.100000)"
fill="#000000" stroke="none">
<path d="M0 5120 l0 -5120 5120 0 5120 0 0 5120 0 5120 -5120 0 -5120 0 0
-5120z m4512 2807 c114 -36 200 -89 286 -176 156 -155 232 -352 218 -564 -19
-295 -184 -532 -451 -649 -90 -40 -148 -51 -270 -51 -132 -1 -206 16 -324 74
-141 69 -285 226 -345 376 -84 207 -70 460 34 644 105 185 264 307 465 359
110 28 277 22 387 -13z m1715 -449 c6 -7 53 -141 106 -298 53 -157 146 -431
207 -610 115 -334 160 -469 160 -482 0 -5 -70 -8 -155 -8 l-154 0 -44 138 -45
137 -237 5 c-205 4 -238 3 -245 -10 -5 -9 -27 -73 -50 -143 -22 -70 -46 -127
-53 -128 -37 -2 -292 3 -295 6 -5 4 43 144 163 485 96 273 170 485 252 728 30
89 62 169 70 177 19 20 305 22 320 3z m-2301 -1223 c261 -98 498 -96 757 7 94
37 155 35 262 -8 261 -104 454 -343 496 -616 25 -159 -9 -246 -115 -302 l-60
-31 -944 -3 c-626 -1 -956 1 -982 8 -67 18 -131 69 -163 130 -27 52 -29 60
-24 155 11 255 183 508 428 631 147 74 210 79 345 29z m-1660 -2944 c233 -44
356 -208 342 -452 -11 -187 -99 -315 -258 -375 -33 -13 -90 -18 -217 -22
l-173 -4 -2 -232 -3 -231 -130 0 -130 0 -3 650 c-1 358 0 656 3 663 5 15 493
17 571 3z m1169 -15 c118 -43 201 -122 241 -230 23 -64 26 -227 5 -301 -30
-104 -112 -197 -197 -225 l-35 -12 28 -46 c15 -26 43 -76 63 -112 21 -36 74
-129 119 -208 46 -79 80 -150 77 -158 -4 -11 -33 -14 -150 -14 l-145 0 -61
113 c-33 61 -91 172 -128 244 l-67 133 -72 0 -73 0 0 -245 0 -246 -132 3 -133
3 -3 649 c-2 494 1 652 10 663 10 12 58 14 307 11 254 -4 303 -7 346 -22z
m1243 -95 c2 -85 -1 -117 -10 -123 -7 -4 -122 -8 -255 -8 l-243 0 0 -150 0
-150 230 0 230 0 0 -125 0 -125 -230 0 -230 0 0 -145 0 -145 260 0 260 0 5
-22 c3 -13 5 -66 3 -118 l-3 -95 -397 -3 -398 -2 0 658 c0 362 3 662 7 665 4
4 178 6 387 5 l381 -3 3 -114z m828 99 c182 -46 288 -177 301 -372 13 -174
-46 -314 -163 -393 -82 -55 -174 -75 -341 -75 l-143 0 -2 -232 -3 -233 -130 0
-130 0 -3 640 c-1 352 0 650 3 663 l5 22 264 0 c230 0 273 -2 342 -20z m663
-12 c5 -18 24 -94 41 -168 17 -74 46 -200 65 -280 19 -80 46 -197 60 -261 37
-175 37 -175 64 -62 29 121 197 742 211 777 9 26 10 26 125 26 136 0 114 26
175 -205 23 -88 57 -212 75 -276 18 -64 50 -183 71 -265 29 -113 40 -142 45
-123 4 13 35 148 69 299 34 151 79 340 99 420 l36 145 129 3 c132 3 153 -3
141 -36 -4 -12 -30 -108 -134 -512 -16 -63 -48 -186 -70 -272 -23 -87 -59
-229 -81 -315 -22 -87 -43 -166 -46 -175 -5 -16 -21 -18 -142 -18 l-137 0 -57
218 c-32 119 -84 317 -115 440 l-58 222 -21 -77 c-39 -139 -143 -515 -182
-658 l-39 -140 -136 -3 -136 -3 -15 53 c-100 360 -327 1258 -321 1268 4 6 65
10 140 10 l133 0 11 -32z m2316 -93 l0 -120 -252 -3 -253 -2 0 -140 c0 -77 -1
-143 -2 -147 -2 -5 101 -10 227 -13 l230 -5 3 -100 c5 -161 30 -145 -233 -145
l-225 0 0 -145 0 -145 253 -2 252 -3 0 -115 0 -115 -387 -3 -388 -2 0 665 0
665 388 -2 387 -3 0 -120z"/>
<path d="M6041 7058 c-12 -40 -47 -150 -77 -245 -30 -94 -54 -176 -54 -182 0
-8 50 -11 155 -11 85 0 155 2 155 5 0 2 -24 82 -54 177 -30 95 -64 206 -75
247 -11 41 -22 76 -25 78 -2 2 -13 -29 -25 -69z"/>
<path d="M1960 2886 l0 -186 103 0 c123 0 168 11 213 53 81 77 66 243 -28 294
-25 13 -63 18 -160 21 l-128 4 0 -186z"/>
<path d="M3043 2896 l0 -176 118 0 c134 0 179 13 218 62 34 42 41 157 13 208
-34 62 -69 75 -218 78 l-131 4 0 -176z"/>
<path d="M5160 2885 l0 -187 123 3 c107 4 127 7 160 28 52 32 77 85 77 164 0
74 -23 118 -80 151 -29 17 -56 22 -157 25 l-123 3 0 -187z"/>
</g>
</svg>
